#!OML:ASF H:\Pregnant\Project 1\Capture day 1\Session 1\femalepreg.ASF
:FULLY-SPECIFIED
:DEGREES
783
root 6.15056 1.43573 15.4228 -71.8962 9.48396 26.0458
lowerback -6.45316 1.27841 0.503204
upperback -4.64306 1.63367 1.54647
thorax -1.19893 0.807837 1.39393
lowerneck -23.8703 16.6765 15.6178
upperneck 18.639 24.173 -19.0966
head 14.9034 9.5335 -4.56705
rclavicle 4.45278e-014 2.48481e-017
rhumerus -6.31192 57.1791 -28.0801
rradius 29.4286
rwrist 0.564545
rhand 14.8356 -22.4642
rfingers 7.12502
rthumb 39.6969 -47.781
lclavicle 4.45278e-014 2.48481e-017
lhumerus -60.2118 33.53 51.1544
lradius 82.482
lwrist 26.3159
lhand 9.24492 4.50185
lfingers 7.12502
lthumb 34.4098 31.1937
rfemur -114.37 -15.113 54.8832
rtibia 142.199
rfoot 12.181 -19.6339
rtoes -48.601
lfemur -74.3562 4.59721 -55.5065
ltibia 127.708
lfoot 11.1589 -6.6002
ltoes -21.3644
784
root 6.15662 1.43669 15.4214 -71.8693 9.52847 25.9614
lowerback -6.47647 1.29702 0.474379
upperback -4.65542 1.65912 1.60996
thorax -1.20222 0.821941 1.47717
lowerneck -23.7753 16.5897 15.3307
upperneck 18.6038 24.2024 -19.2039
head 14.8585 9.52348 -4.56522
rclavicle 5.725e-014 -5.35476e-014
rhumerus -6.5257 56.9691 -28.0861
rradius 29.4015
rwrist 0.727268
rhand 14.8131 -22.4328
rfingers 7.12502
rthumb 39.6757 -47.7559
lclavicle 5.725e-014 -5.35476e-014
lhumerus -60.3619 33.791 51.0005
lradius 82.3372
lwrist 26.5947
lhand 9.04 4.64108
lfingers 7.12502
lthumb 34.2153 31.3768
rfemur -114.844 -14.0084 55.0244
rtibia 142.411
rfoot 13.4021 -19.4464
rtoes -48.6282
lfemur -74.3926 4.77903 -55.53
ltibia 127.712
lfoot 11.2672 -6.66559
ltoes -21.1019
785
root 6.16233 1.43739 15.4205 -71.8654 9.57268 25.8738
lowerback -6.48189 1.33562 0.457189
upperback -4.67799 1.71046 1.68639
thorax -1.2268 0.848748 1.56801
lowerneck -23.6883 16.4561 14.9363
upperneck 18.6518 24.2133 -19.2828
head 14.827 9.49885 -4.54425
rclavicle 2.22639e-014 5.33737e-014
rhumerus -6.89785 56.5738 -28.2195
rradius 29.3163
rwrist 1.09484
rhand 14.7775 -22.3656
rfingers 7.12502
rthumb 39.6422 -47.6986
lclavicle 2.22639e-014 5.33737e-014
lhumerus -60.5193 34.0251 50.8989
lradius 82.1878
lwrist 26.8918
lhand 8.7724 4.73886
lfingers 7.12502
lthumb 33.9611 31.5312
rfemur -115.333 -12.9378 55.1478
rtibia 142.646
rfoot 14.5869 -19.1633
rtoes -48.6468
lfemur -74.4077 4.99383 -55.5448
ltibia 127.721
lfoot 11.3382 -6.72991
ltoes -21.0763
786
root 6.16779 1.43846 15.4198 -71.8652 9.61117 25.7827
lowerback -6.47865 1.37389 0.438295
upperback -4.72104 1.76183 1.77779
thorax -1.27815 0.875894 1.67474
lowerneck -23.5371 16.3041 14.5173
upperneck 18.7042 24.2131 -19.3532
head 14.7775 9.47418 -4.5229
rclavicle 5.725e-014 -3.05134e-014
rhumerus -7.2712 56.2543 -28.3143
rradius 29.2473
rwrist 1.41743
rhand 14.7245 -22.3126
rfingers 7.12502
rthumb 39.5923 -47.6604
lclavicle 5.725e-014 -3.05134e-014
lhumerus -60.7293 34.2762 50.777
lradius 82.0347
lwrist 27.1919
lhand 8.45836 4.8577
lfingers 7.12502
lthumb 33.6627 31.7157
rfemur -115.834 -11.8716 55.285
rtibia 142.874
rfoot 15.8794 -18.7377
rtoes -48.5692
lfemur -74.4168 5.21777 -55.5511
ltibia 127.734
lfoot 11.3797 -6.78506
ltoes -21.2583
787
root 6.1729 1.43985 15.4193 -71.8644 9.64028 25.6889
lowerback -6.46424 1.40647 0.411035
upperback -4.79078 1.80672 1.88749
thorax -1.36428 0.900468 1.80401
lowerneck -23.306 16.1415 14.0998
upperneck 18.7612 24.2021 -19.4061
head 14.7086 9.45373 -4.50194
rclavicle -2.22639e-014 1.39646e-014
rhumerus -7.60955 56.0918 -28.3269
rradius 29.2175
rwrist 1.62624
rhand 14.6746 -22.2824
rfingers 7.12502
rthumb 39.5453 -47.6441
lclavicle -2.22639e-014 1.39646e-014
lhumerus -61.0134 34.5504 50.6105
lradius 81.8739
lwrist 27.4875
lhand 8.09377 4.93077
lfingers 7.12502
lthumb 33.3162 31.8637
rfemur -116.349 -10.8041 55.43
rtibia 143.103
rfoot 17.2157 -18.1697
rtoes -48.4135
lfemur -74.4275 5.45312 -55.5468
ltibia 127.753
lfoot 11.3956 -6.83018
ltoes -21.6248
788
root 6.1776 1.44153 15.4189 -71.8539 9.66003 25.5941
lowerback -6.44891 1.42671 0.374317
upperback -4.88348 1.83638 2.0119
thorax -1.47537 0.918217 1.95267
lowerneck -22.979 15.9869 13.716
upperneck 18.7929 24.1926 -19.4508
head 14.6128 9.44612 -4.48622
rclavicle -9.54166e-015 -4.59193e-014
rhumerus -7.86955 56.1306 -28.2318
rradius 29.2365
rwrist 1.67627
rhand 14.6222 -22.2848
rfingers 7.12502
rthumb 39.4959 -47.6609
lclavicle -9.54166e-015 -4.59193e-014
lhumerus -61.3727 34.8687 50.3768
lradius 81.713
lwrist 27.7737
lhand 7.71176 5.0268
lfingers 7.12502
lthumb 32.9529 32.0369
rfemur -116.886 -9.72719 55.5766
rtibia 143.338
rfoot 18.5608 -17.4585
rtoes -48.1933
lfemur -74.4479 5.69083 -55.5326
ltibia 127.776
lfoot 11.3916 -6.87238
ltoes -22.1038
789
root 6.18185 1.44332 15.4185 -71.8343 9.67163 25.499
lowerback -6.42789 1.4281 0.322446
upperback -4.99722 1.84275 2.14904
thorax -1.61187 0.925419 2.12147
lowerneck -22.5841 15.8483 13.3735
upperneck 18.7981 24.1861 -19.4833
head 14.4956 9.4508 -4.47345
rclavicle -7.63333e-014 -6.32135e-014
rhumerus -8.01469 56.4128 -28.0028
rradius 29.3164
rwrist 1.52965
rhand 14.5824 -22.3252
rfingers 7.12502
rthumb 39.4584 -47.7123
lclavicle -7.63333e-014 -6.32135e-014
lhumerus -61.8127 35.2365 50.06
lradius 81.5555
lwrist 28.0533
lhand 7.29875 5.12506
lfingers 7.12502
lthumb 32.56 32.2171
rfemur -117.449 -8.64444 55.714
rtibia 143.588
rfoot 19.8602 -16.6163
rtoes -47.9359
lfemur -74.4781 5.93295 -55.5095
ltibia 127.802
lfoot 11.3739 -6.91697
ltoes -22.6001
790
root 6.18555 1.44485 15.418 -71.8151 9.6782 25.4062
lowerback -6.40695 1.41591 0.268728
upperback -5.10448 1.83165 2.281
thorax -1.74099 0.924253 2.28541
lowerneck -22.2107 15.7405 13.0778
upperneck 18.7977 24.1969 -19.5045
head 14.3876 9.46534 -4.45692
rclavicle 9.54166e-015 1.88845e-015
rhumerus -8.07498 56.7689 -27.721
rradius 29.4162
rwrist 1.31545
rhand 14.5539 -22.3821
rfingers 7.12502
rthumb 39.4316 -47.7771
lclavicle 9.54166e-015 1.88845e-015
lhumerus -62.2668 35.6617 49.6856
lradius 81.411
lwrist 28.319
lhand 6.84511 5.22753
lfingers 7.12502
lthumb 32.1282 32.4077
rfemur -118.046 -7.56993 55.821
rtibia 143.875
rfoot 21.0186 -15.6736
rtoes -47.6938
lfemur -74.5103 6.19582 -55.4771
ltibia 127.83
lfoot 11.3605 -6.97351
ltoes -22.9863
791
root 6.18865 1.44618 15.4172 -71.7808 9.67764 25.3181
lowerback -6.39091 1.39718 0.211884
upperback -5.22179 1.81244 2.42161
thorax -1.87801 0.919675 2.45993
lowerneck -21.7998 15.6463 12.7875
upperneck 18.7548 24.219 -19.5334
head 14.2582 9.489 -4.44231
rclavicle 6.36111e-014 6.4605e-014
rhumerus -8.0771 57.2003 -27.3745
rradius 29.5343
rwrist 1.05311
rhand 14.5361 -22.4451
rfingers 7.12502
rthumb 39.4148 -47.8451
lclavicle 6.36111e-014 6.4605e-014
lhumerus -62.7473 36.101 49.2903
lradius 81.2856
lwrist 28.5853
lhand 6.27452 5.26882
lfingers 7.12502
lthumb 31.5849 32.5572
rfemur -118.702 -6.48833 55.8934
rtibia 144.199
rfoot 22.0288 -14.6658
rtoes -47.5008
lfemur -74.5618 6.46543 -55.4363
ltibia 127.861
lfoot 11.3548 -7.0486
ltoes -23.2053
792
root 6.19129 1.44721 15.4165 -71.747 9.67028 25.2357
lowerback -6.36814 1.37674 0.158177
upperback -5.33864 1.79126 2.56544
thorax -2.01826 0.914429 2.63604
lowerneck -21.3676 15.5676 12.4978
upperneck 18.6592 24.2574 -19.5874
head 14.1106 9.52072 -4.4334
rclavicle -8.26944e-014 -9.74045e-015
rhumerus -8.04858 57.6364 -27.0048
rradius 29.6523
rwrist 0.795254
rhand 14.5239 -22.5063
rfingers 7.12502
rthumb 39.4033 -47.9096
lclavicle -8.26944e-014 -9.74045e-015
lhumerus -63.2252 36.5361 48.9059
lradius 81.1842
lwrist 28.8575
lhand 5.57267 5.31468
lfingers 7.12502
lthumb 30.916 32.7321
rfemur -119.41 -5.4094 55.9313
rtibia 144.564
rfoot 22.9069 -13.597
rtoes -47.3528
lfemur -74.6182 6.76426 -55.3855
ltibia 127.896
lfoot 11.3597 -7.14612
ltoes -23.2062
793
root 6.19329 1.44777 15.4162 -71.7193 9.65677 25.1587
lowerback -6.34558 1.35315 0.114137
upperback -5.43757 1.76542 2.69579
thorax -2.13877 0.906497 2.79307
lowerneck -20.9459 15.5178 12.2562
upperneck 18.508 24.3157 -19.6796
head 13.9598 9.56131 -4.43906
rclavicle 1.90833e-014 5.96354e-016
rhumerus -7.98157 58.0316 -26.6439
rradius 29.7599
rwrist 0.55179
rhand 14.5222 -22.5611
rfingers 7.12502
rthumb 39.4017 -47.9649
lclavicle 1.90833e-014 5.96354e-016
lhumerus -63.6614 36.9834 48.5284
lradius 81.1046
lwrist 29.1368
lhand 4.73281 5.29604
lfingers 7.12502
lthumb 30.1151 32.8624
rfemur -120.176 -4.33409 55.9319
rtibia 144.976
rfoot 23.6393 -12.4991
rtoes -47.2609
lfemur -74.6753 7.09704 -55.3242
ltibia 127.936
lfoot 11.3703 -7.26685
ltoes -23.0454
794
root 6.19476 1.44829 15.4161 -71.6876 9.63663 25.0872
lowerback -6.34187 1.32368 0.0867989
upperback -5.50834 1.73035 2.7985
thorax -2.21743 0.892839 2.91267
lowerneck -20.5939 15.5073 12.0968
upperneck 18.335 24.3955 -19.7936
head 13.8337 9.60909 -4.45471
rclavicle -9.85972e-014 -1.96797e-014
rhumerus -7.85692 58.3796 -26.3066
rradius 29.8546
rwrist 0.29888
rhand 14.5119 -22.6198
rfingers 7.12502
rthumb 39.3921 -48.0264
lclavicle -9.85972e-014 -1.96797e-014
lhumerus -64.0277 37.4606 48.1488
lradius 81.0515
lwrist 29.4095
lhand 3.79028 5.29713
lfingers 7.12502
lthumb 29.2155 33.0236
rfemur -120.991 -3.24463 55.9203
rtibia 145.406
rfoot 24.3701 -11.3402
rtoes -47.1579
lfemur -74.7388 7.44382 -55.2549
ltibia 127.981
lfoot 11.3766 -7.39884
ltoes -22.8014
795
root 6.19572 1.44861 15.4163 -71.6598 9.61135 25.0192
lowerback -6.35549 1.28659 0.0794359
upperback -5.54047 1.68334 2.86305
thorax -2.24348 0.871548 2.98188
lowerneck -20.3216 15.5328 12.0586
upperneck 18.0991 24.4791 -19.9669
head 13.7268 9.65597 -4.50306
rclavicle 1.27222e-014 7.71285e-014
rhumerus -7.66919 58.6629 -26.0095
rradius 29.9336
rwrist 0.0357531
rhand 14.5005 -22.6787
rfingers 7.12502
rthumb 39.3813 -48.0884
lclavicle 1.27222e-014 7.71285e-014
lhumerus -64.3003 37.9739 47.7694
lradius 81.0214
lwrist 29.6617
lhand 2.76697 5.24362
lfingers 7.12502
lthumb 28.2379 33.1359
rfemur -121.849 -2.14178 55.8986
rtibia 145.856
rfoot 25.1088 -10.1323
rtoes -47.0479
lfemur -74.7997 7.80638 -55.1778
ltibia 128.031
lfoot 11.3668 -7.538
ltoes -22.5714
